<?xml version="1.0" encoding="UTF-8"?>
<svg width="394px" height="117px" viewBox="0 0 394 117" version="1.1" xmlns="http://www.w3.org/2000/svg" xmlns:xlink="http://www.w3.org/1999/xlink">
    <title>Artboard</title>
    <g id="Artboard" stroke="none" stroke-width="1" fill="none" fill-rule="evenodd">
        <g id="BLACK-WEEKS" transform="translate(36.23, 41.456)" fill="#FFFFFF" fill-rule="nonzero">
            <path d="M0,32.544 L0,32.064 L0.864,31.728 C1.504,31.472 1.944,31.152 2.184,30.768 C2.424,30.384 2.544,29.872 2.544,29.232 L2.544,4.176 C2.544,3.504 2.424,2.976 2.184,2.592 C1.944,2.208 1.504,1.904 0.864,1.68 L0,1.344 L0,0.864 L13.776,0.864 C17.68,0.864 20.496,1.576 22.224,3 C23.952,4.424 24.816,6.224 24.816,8.4 C24.816,10.032 24.184,11.512 22.92,12.84 C21.656,14.168 19.488,15.104 16.416,15.648 C19.936,16.032 22.512,16.952 24.144,18.408 C25.776,19.864 26.592,21.632 26.592,23.712 C26.592,24.736 26.368,25.768 25.92,26.808 C25.472,27.848 24.712,28.8 23.64,29.664 C22.568,30.528 21.104,31.224 19.248,31.752 C17.392,32.28 15.04,32.544 12.192,32.544 L0,32.544 Z M9.648,15.6 L11.712,15.6 C13.856,15.6 15.4,15.104 16.344,14.112 C17.288,13.12 17.76,11.392 17.76,8.928 C17.76,6.368 17.328,4.544 16.464,3.456 C15.6,2.368 14.192,1.824 12.24,1.824 L9.648,1.824 L9.648,15.6 Z M9.648,31.584 L12.048,31.584 C14.448,31.584 16.232,30.944 17.4,29.664 C18.568,28.384 19.152,26.384 19.152,23.664 C19.152,21.104 18.592,19.28 17.472,18.192 C16.352,17.104 14.512,16.56 11.952,16.56 L9.648,16.56 L9.648,31.584 Z" id="Shape"></path>
            <path d="M29.388,32.544 L29.388,32.064 L30.396,31.68 C31.068,31.424 31.492,31.112 31.668,30.744 C31.844,30.376 31.932,29.872 31.932,29.232 L31.932,4.176 C31.932,3.536 31.836,3.024 31.644,2.64 C31.452,2.256 31.036,1.952 30.396,1.728 L29.388,1.344 L29.388,0.864 L41.628,0.864 L41.628,1.344 L40.764,1.728 C40.156,1.952 39.74,2.264 39.516,2.664 C39.292,3.064 39.18,3.584 39.18,4.224 L39.18,31.584 L46.572,31.584 C47.756,31.584 48.628,31.296 49.188,30.72 C49.748,30.144 50.284,29.312 50.796,28.224 L52.668,24.192 L53.148,24.192 L52.716,32.544 L29.388,32.544 Z" id="Path"></path>
            <path d="M56.136,32.544 L56.136,32.064 L57.336,31.632 C57.976,31.376 58.472,31.064 58.824,30.696 C59.176,30.328 59.464,29.808 59.688,29.136 L69.576,0.768 L73.656,0.768 L83.4,29.328 C83.656,30.032 83.944,30.568 84.264,30.936 C84.584,31.304 85.08,31.616 85.752,31.872 L86.328,32.064 L86.328,32.544 L74.136,32.544 L74.136,32.064 L74.856,31.824 C75.528,31.568 75.936,31.208 76.08,30.744 C76.224,30.28 76.2,29.728 76.008,29.088 L73.752,22.176 L63.096,22.176 L60.792,28.944 C60.568,29.648 60.496,30.208 60.576,30.624 C60.656,31.04 61.032,31.376 61.704,31.632 L62.76,32.064 L62.76,32.544 L56.136,32.544 Z M63.432,21.216 L73.464,21.216 L68.616,6.288 L63.432,21.216 Z" id="Shape"></path>
            <path d="M104.628,33.408 C101.524,33.408 98.716,32.776 96.204,31.512 C93.692,30.248 91.7,28.368 90.228,25.872 C88.756,23.376 88.02,20.32 88.02,16.704 C88.02,13.952 88.468,11.536 89.364,9.456 C90.26,7.376 91.484,5.632 93.036,4.224 C94.588,2.816 96.38,1.76 98.412,1.056 C100.444,0.352 102.596,0 104.868,0 C106.692,0 108.372,0.208 109.908,0.624 C111.444,1.04 112.884,1.616 114.228,2.352 L114.42,8.256 L113.94,8.256 L111.54,4.416 C111.22,3.808 110.868,3.256 110.484,2.76 C110.1,2.264 109.62,1.888 109.044,1.632 C108.564,1.408 108.092,1.24 107.628,1.128 C107.164,1.016 106.58,0.96 105.876,0.96 C104.02,0.96 102.332,1.456 100.812,2.448 C99.292,3.44 98.076,5.08 97.164,7.368 C96.252,9.656 95.796,12.784 95.796,16.752 C95.796,20.688 96.228,23.8 97.092,26.088 C97.956,28.376 99.132,30.008 100.62,30.984 C102.108,31.96 103.78,32.448 105.636,32.448 C106.66,32.448 107.476,32.376 108.084,32.232 C108.692,32.088 109.3,31.872 109.908,31.584 C110.516,31.328 110.98,30.952 111.3,30.456 C111.62,29.96 111.908,29.424 112.164,28.848 L114.276,24.144 L114.756,24.144 L114.612,31.008 C113.268,31.712 111.764,32.288 110.1,32.736 C108.436,33.184 106.612,33.408 104.628,33.408 Z" id="Path"></path>
            <path d="M118.56,32.544 L118.56,32.064 L119.568,31.68 C120.208,31.456 120.624,31.152 120.816,30.768 C121.008,30.384 121.104,29.888 121.104,29.28 L121.104,4.176 C121.104,3.536 121.008,3.024 120.816,2.64 C120.624,2.256 120.208,1.952 119.568,1.728 L118.56,1.344 L118.56,0.864 L130.512,0.864 L130.512,1.344 L129.456,1.776 C128.912,1.968 128.544,2.256 128.352,2.64 C128.16,3.024 128.064,3.552 128.064,4.224 L128.064,29.328 C128.064,29.968 128.168,30.464 128.376,30.816 C128.584,31.168 128.992,31.456 129.6,31.68 L130.512,32.064 L130.512,32.544 L118.56,32.544 Z M136.272,32.544 L136.272,32.064 L136.896,31.872 C137.536,31.68 137.872,31.36 137.904,30.912 C137.936,30.464 137.744,29.952 137.328,29.376 L128.112,16.272 L140.256,3.888 C140.704,3.44 140.952,3.008 141,2.592 C141.048,2.176 140.736,1.856 140.064,1.632 L139.248,1.344 L139.248,0.864 L146.256,0.864 L146.256,1.344 L145.008,1.728 C144.304,1.952 143.744,2.224 143.328,2.544 C142.912,2.864 142.432,3.296 141.888,3.84 L133.296,12.624 L144.576,29.088 C145.056,29.792 145.512,30.368 145.944,30.816 C146.376,31.264 146.992,31.616 147.792,31.872 L148.464,32.064 L148.464,32.544 L136.272,32.544 Z" id="Shape"></path>
            <path d="M172.536,32.688 L164.04,4.128 C163.816,3.392 163.576,2.856 163.32,2.52 C163.064,2.184 162.616,1.872 161.976,1.584 L161.4,1.344 L161.4,0.864 L174.12,0.864 L174.12,1.344 L173.112,1.728 C172.376,2.016 171.88,2.368 171.624,2.784 C171.368,3.2 171.352,3.776 171.576,4.512 L176.808,24.48 L182.472,7.728 L181.368,4.32 C181.144,3.648 180.936,3.136 180.744,2.784 C180.552,2.432 180.232,2.144 179.784,1.92 L178.728,1.344 L178.728,0.864 L190.776,0.864 L190.776,1.344 L189.288,1.92 C188.648,2.144 188.288,2.472 188.208,2.904 C188.128,3.336 188.2,3.888 188.424,4.56 L194.52,24.96 L200.28,4.944 C200.504,4.176 200.584,3.504 200.52,2.928 C200.456,2.352 200.056,1.936 199.32,1.68 L198.312,1.344 L198.312,0.864 L204.984,0.864 L204.984,1.344 L203.736,1.824 C203.096,2.048 202.648,2.4 202.392,2.88 C202.136,3.36 201.912,3.952 201.72,4.656 L193.752,32.688 L190.44,32.688 L183.24,10.128 L175.848,32.688 L172.536,32.688 Z" id="Path"></path>
            <path d="M207.972,32.544 L207.972,32.064 L209.076,31.632 C209.62,31.408 209.996,31.112 210.204,30.744 C210.412,30.376 210.516,29.872 210.516,29.232 L210.516,4.176 C210.516,3.536 210.428,3.032 210.252,2.664 C210.076,2.296 209.684,2 209.076,1.776 L207.972,1.344 L207.972,0.864 L230.964,0.864 L231.252,8.256 L230.772,8.256 L228.708,3.744 C228.42,3.168 228.116,2.704 227.796,2.352 C227.476,2 226.996,1.824 226.356,1.824 L217.716,1.824 L217.716,15.696 L222.852,15.696 C223.492,15.696 223.98,15.528 224.316,15.192 C224.652,14.856 224.948,14.4 225.204,13.824 L226.164,11.904 L226.644,11.904 L226.644,20.544 L226.164,20.544 L225.204,18.528 C224.916,17.952 224.612,17.496 224.292,17.16 C223.972,16.824 223.492,16.656 222.852,16.656 L217.716,16.656 L217.716,31.584 L227.412,31.584 C228.052,31.584 228.548,31.416 228.9,31.08 C229.252,30.744 229.54,30.272 229.764,29.664 L231.732,25.152 L232.212,25.152 L231.924,32.544 L207.972,32.544 Z" id="Path"></path>
            <path d="M236.112,32.544 L236.112,32.064 L237.216,31.632 C237.76,31.408 238.136,31.112 238.344,30.744 C238.552,30.376 238.656,29.872 238.656,29.232 L238.656,4.176 C238.656,3.536 238.568,3.032 238.392,2.664 C238.216,2.296 237.824,2 237.216,1.776 L236.112,1.344 L236.112,0.864 L259.104,0.864 L259.392,8.256 L258.912,8.256 L256.848,3.744 C256.56,3.168 256.256,2.704 255.936,2.352 C255.616,2 255.136,1.824 254.496,1.824 L245.856,1.824 L245.856,15.696 L250.992,15.696 C251.632,15.696 252.12,15.528 252.456,15.192 C252.792,14.856 253.088,14.4 253.344,13.824 L254.304,11.904 L254.784,11.904 L254.784,20.544 L254.304,20.544 L253.344,18.528 C253.056,17.952 252.752,17.496 252.432,17.16 C252.112,16.824 251.632,16.656 250.992,16.656 L245.856,16.656 L245.856,31.584 L255.552,31.584 C256.192,31.584 256.688,31.416 257.04,31.08 C257.392,30.744 257.68,30.272 257.904,29.664 L259.872,25.152 L260.352,25.152 L260.064,32.544 L236.112,32.544 Z" id="Path"></path>
            <path d="M264.252,32.544 L264.252,32.064 L265.26,31.68 C265.9,31.456 266.316,31.152 266.508,30.768 C266.7,30.384 266.796,29.888 266.796,29.28 L266.796,4.176 C266.796,3.536 266.7,3.024 266.508,2.64 C266.316,2.256 265.9,1.952 265.26,1.728 L264.252,1.344 L264.252,0.864 L276.204,0.864 L276.204,1.344 L275.148,1.776 C274.604,1.968 274.236,2.256 274.044,2.64 C273.852,3.024 273.756,3.552 273.756,4.224 L273.756,29.328 C273.756,29.968 273.86,30.464 274.068,30.816 C274.276,31.168 274.684,31.456 275.292,31.68 L276.204,32.064 L276.204,32.544 L264.252,32.544 Z M281.964,32.544 L281.964,32.064 L282.588,31.872 C283.228,31.68 283.564,31.36 283.596,30.912 C283.628,30.464 283.436,29.952 283.02,29.376 L273.804,16.272 L285.948,3.888 C286.396,3.44 286.644,3.008 286.692,2.592 C286.74,2.176 286.428,1.856 285.756,1.632 L284.94,1.344 L284.94,0.864 L291.948,0.864 L291.948,1.344 L290.7,1.728 C289.996,1.952 289.436,2.224 289.02,2.544 C288.604,2.864 288.124,3.296 287.58,3.84 L278.988,12.624 L290.268,29.088 C290.748,29.792 291.204,30.368 291.636,30.816 C292.068,31.264 292.684,31.616 293.484,31.872 L294.156,32.064 L294.156,32.544 L281.964,32.544 Z" id="Shape"></path>
            <path d="M307.464,33.408 C305.704,33.408 303.912,33.192 302.088,32.76 C300.264,32.328 298.744,31.76 297.528,31.056 L297.768,24.528 L298.248,24.528 L299.736,27.648 C300.184,28.544 300.664,29.336 301.176,30.024 C301.688,30.712 302.392,31.248 303.288,31.632 C303.928,31.952 304.544,32.168 305.136,32.28 C305.728,32.392 306.392,32.448 307.128,32.448 C309.08,32.448 310.624,31.92 311.76,30.864 C312.896,29.808 313.464,28.448 313.464,26.784 C313.464,25.216 313.08,23.992 312.312,23.112 C311.544,22.232 310.312,21.376 308.616,20.544 L306.648,19.68 C303.896,18.464 301.744,17.064 300.192,15.48 C298.64,13.896 297.864,11.792 297.864,9.168 C297.864,7.28 298.352,5.648 299.328,4.272 C300.304,2.896 301.664,1.84 303.408,1.104 C305.152,0.368 307.192,0 309.528,0 C311.224,0 312.832,0.224 314.352,0.672 C315.872,1.12 317.192,1.728 318.312,2.496 L318.024,8.256 L317.544,8.256 L315.576,4.656 C315.032,3.536 314.488,2.744 313.944,2.28 C313.4,1.816 312.776,1.488 312.072,1.296 C311.656,1.168 311.272,1.08 310.92,1.032 C310.568,0.984 310.12,0.96 309.576,0.96 C307.944,0.96 306.568,1.432 305.448,2.376 C304.328,3.32 303.768,4.592 303.768,6.192 C303.768,7.824 304.2,9.128 305.064,10.104 C305.928,11.08 307.192,11.952 308.856,12.72 L311.064,13.68 C314.136,15.024 316.344,16.456 317.688,17.976 C319.032,19.496 319.704,21.456 319.704,23.856 C319.704,26.672 318.64,28.968 316.512,30.744 C314.384,32.52 311.368,33.408 307.464,33.408 Z" id="Path"></path>
        </g>
    </g>
</svg>