<?xml version="1.0" encoding="UTF-8" standalone="no"?>
<!DOCTYPE svg PUBLIC "-//W3C//DTD SVG 1.1//EN" "http://www.w3.org/Graphics/SVG/1.1/DTD/svg11.dtd">
<svg width="100%" height="100%" viewBox="0 0 107 116" version="1.1" xmlns="http://www.w3.org/2000/svg" xmlns:xlink="http://www.w3.org/1999/xlink" xml:space="preserve" xmlns:serif="http://www.serif.com/" style="fill-rule:evenodd;clip-rule:evenodd;stroke-linejoin:round;stroke-miterlimit:2;">
    <g transform="matrix(1,0,0,1,-945,-3160)">
        <path d="M996.213,3250.1L956.218,3216.16C954.465,3214.67 954.249,3212.04 955.737,3210.29C957.225,3208.54 959.856,3208.32 961.61,3209.81L994.743,3237.92L994.743,3164.66C994.743,3162.36 996.61,3160.5 998.909,3160.5C1001.21,3160.5 1003.08,3162.36 1003.08,3164.66L1003.08,3237.62L1035.9,3208.36C1037.62,3206.83 1040.25,3206.98 1041.78,3208.7C1043.31,3210.41 1043.16,3213.05 1041.45,3214.58L1001.68,3250.03C1001.38,3250.31 1001.03,3250.53 1000.66,3250.7C999.197,3251.38 997.456,3251.15 996.213,3250.1ZM949.972,3275.93C947.672,3275.93 945.805,3274.07 945.805,3271.77C945.805,3269.47 947.672,3267.6 949.972,3267.6L1047.62,3267.6C1049.91,3267.6 1051.78,3269.47 1051.78,3271.77C1051.78,3274.07 1049.91,3275.93 1047.62,3275.93L949.972,3275.93Z"/>
    </g>
</svg>
