<?xml version="1.0" encoding="UTF-8" standalone="no"?>
<!DOCTYPE svg PUBLIC "-//W3C//DTD SVG 1.1//EN" "http://www.w3.org/Graphics/SVG/1.1/DTD/svg11.dtd">
<svg width="100%" height="100%" viewBox="0 0 112 124" version="1.1" xmlns="http://www.w3.org/2000/svg" xmlns:xlink="http://www.w3.org/1999/xlink" xml:space="preserve" xmlns:serif="http://www.serif.com/" style="fill-rule:evenodd;clip-rule:evenodd;stroke-linejoin:round;stroke-miterlimit:2;">
    <g transform="matrix(1,0,0,1,-943.347,-3156.86)">
        <g transform="matrix(1,0,0,1,-1.13687e-13,175.17)">
            <g transform="matrix(1.32997,0,0,1.32997,-326.52,-1238.35)">
                <path d="M992.724,3244.74L962.39,3218.05C960.303,3216.08 960.213,3212.78 962.189,3210.69C964.165,3208.6 967.465,3208.51 969.552,3210.49L991.096,3228.85L991.096,3178.25C991.096,3175.38 993.43,3173.04 996.305,3173.04C999.179,3173.04 1001.51,3175.38 1001.51,3178.25L1001.51,3228.97L1023.65,3209.74C1025.76,3207.77 1029.05,3207.89 1031.02,3209.99C1032.98,3212.09 1032.86,3215.39 1030.76,3217.35L999.858,3244.76C999.417,3245.18 998.912,3245.5 998.364,3245.74C996.474,3246.55 994.249,3246.18 992.724,3244.74ZM960.764,3265.57C957.479,3265.57 954.811,3262.9 954.811,3259.61C954.811,3256.33 957.479,3253.66 960.764,3253.66L1032.41,3253.66C1035.7,3253.66 1038.37,3256.33 1038.37,3259.61C1038.37,3262.9 1035.7,3265.57 1032.41,3265.57L960.764,3265.57Z" style="fill:white;fill-opacity:0.9;"/>
            </g>
        </g>
    </g>
</svg>
