<?xml version="1.0" encoding="UTF-8" standalone="no"?>
<!DOCTYPE svg PUBLIC "-//W3C//DTD SVG 1.1//EN" "http://www.w3.org/Graphics/SVG/1.1/DTD/svg11.dtd">
<svg width="100%" height="100%" viewBox="0 0 17238 4167" version="1.1" xmlns="http://www.w3.org/2000/svg" xmlns:xlink="http://www.w3.org/1999/xlink" xml:space="preserve" xmlns:serif="http://www.serif.com/" style="fill-rule:evenodd;clip-rule:evenodd;stroke-linecap:round;stroke-linejoin:round;stroke-miterlimit:1.5;">
    <g transform="matrix(1,0,0,1,-4671,0)">
        <g id="Logotype" transform="matrix(4.13704,0,0,1,4671,0)">
            <rect x="0" y="0" width="4166.67" height="4166.67" style="fill:none;"/>
            <g id="Logo" transform="matrix(1.09555,0,0,1,20.0627,175.839)">
                <g transform="matrix(0.220638,0,0,1,-40.4134,276.833)">
                    <path d="M2266.5,1076C2765.9,1065.5 3302,1539.99 3302,2111.5C3302,2683.01 2838.01,3034 2266.5,3034C1694.99,3034 1231,2683.01 1231,2111.5C1231,1539.99 1783.99,1086.14 2266.5,1076Z" style="fill:url(#_Radial1);stroke:black;stroke-width:187.5px;"/>
                </g>
                <g transform="matrix(0.177758,0,0,0.636383,89.3327,491.914)">
                    <path d="M2083.33,1352.83C2079.78,1033.38 1905.8,595.822 1435,564" style="fill:none;stroke:black;stroke-width:258.28px;"/>
                </g>
                <g transform="matrix(0.238239,-0.341691,0.0753662,1.07944,-31.7722,894.96)">
                    <path d="M1848.21,860.828C1996.83,528.611 2437.98,370.648 2849.62,544.168C2631.94,869.342 2137.11,996.267 1848.21,860.828Z" style="fill:url(#_Linear2);stroke:black;stroke-width:165.58px;"/>
                </g>
            </g>
            <g id="Logo1" serif:id="Logo" transform="matrix(1.09555,0,0,1,20.0627,175.839)">
                <g transform="matrix(0.220638,0,0,1,-40.4134,276.833)">
                    <path d="M2266.5,1076C2765.9,1065.5 3302,1539.99 3302,2111.5C3302,2683.01 2838.01,3034 2266.5,3034C1694.99,3034 1231,2683.01 1231,2111.5C1231,1539.99 1783.99,1086.14 2266.5,1076Z" style="fill:url(#_Radial3);stroke:black;stroke-width:187.5px;"/>
                </g>
                <g transform="matrix(0.177758,0,0,0.636383,89.3327,491.914)">
                    <path d="M2083.33,1352.83C2079.78,1033.38 1905.8,595.822 1435,564" style="fill:none;stroke:black;stroke-width:258.28px;"/>
                </g>
                <g transform="matrix(0.238239,-0.341691,0.0753662,1.07944,-31.7722,894.96)">
                    <path d="M1848.21,860.828C1996.83,528.611 2437.98,370.648 2849.62,544.168C2631.94,869.342 2137.11,996.267 1848.21,860.828Z" style="fill:url(#_Linear4);stroke:black;stroke-width:165.58px;"/>
                </g>
            </g>
            <g transform="matrix(0.212141,0,0,0.877635,-778.317,256.448)">
                <g transform="matrix(3589,0,0,3589,8650,3310.83)">
                    <path d="M0.035,-0L0.035,-0.01L0.068,-0.02C0.08,-0.023 0.089,-0.03 0.094,-0.04C0.099,-0.049 0.102,-0.061 0.102,-0.074L0.102,-0.555C0.095,-0.571 0.089,-0.583 0.085,-0.591C0.08,-0.599 0.075,-0.606 0.07,-0.612C0.065,-0.617 0.057,-0.624 0.048,-0.633L0.031,-0.65L0.031,-0.66L0.208,-0.66L0.54,-0.207L0.54,-0.584C0.54,-0.597 0.538,-0.609 0.534,-0.62C0.529,-0.631 0.52,-0.638 0.507,-0.641L0.474,-0.65L0.474,-0.66L0.617,-0.66L0.617,-0.65L0.59,-0.641C0.578,-0.637 0.571,-0.63 0.568,-0.62C0.565,-0.61 0.564,-0.598 0.564,-0.585L0.564,0.003L0.508,0.003L0.126,-0.522L0.126,-0.074C0.126,-0.061 0.128,-0.049 0.132,-0.04C0.136,-0.031 0.144,-0.024 0.157,-0.02L0.187,-0.01L0.187,-0L0.035,-0Z" style="fill-rule:nonzero;"/>
                </g>
                <g transform="matrix(3589,0,0,3589,10914.7,3310.83)">
                    <path d="M0.14,-0.548C0.117,-0.548 0.098,-0.555 0.083,-0.57C0.067,-0.584 0.059,-0.602 0.059,-0.624C0.059,-0.647 0.067,-0.665 0.083,-0.679C0.098,-0.693 0.117,-0.7 0.14,-0.7C0.163,-0.7 0.182,-0.693 0.197,-0.679C0.212,-0.665 0.22,-0.647 0.22,-0.624C0.22,-0.602 0.212,-0.584 0.197,-0.57C0.182,-0.555 0.163,-0.548 0.14,-0.548ZM0.022,-0L0.022,-0.01L0.036,-0.014C0.049,-0.018 0.058,-0.024 0.064,-0.032C0.069,-0.04 0.071,-0.051 0.071,-0.064L0.071,-0.377C0.071,-0.391 0.069,-0.402 0.064,-0.409C0.058,-0.416 0.049,-0.42 0.036,-0.423L0.022,-0.426L0.022,-0.436L0.205,-0.495L0.215,-0.485L0.212,-0.343L0.212,-0.063C0.212,-0.05 0.215,-0.039 0.22,-0.031C0.225,-0.023 0.233,-0.017 0.246,-0.013L0.256,-0.01L0.256,-0L0.022,-0Z" style="fill-rule:nonzero;"/>
                </g>
                <g transform="matrix(3589,0,0,3589,11919.6,3310.83)">
                    <path d="M0.271,-0.496C0.314,-0.496 0.351,-0.487 0.382,-0.47C0.413,-0.452 0.436,-0.428 0.453,-0.398C0.469,-0.367 0.477,-0.333 0.477,-0.294C0.477,-0.287 0.477,-0.279 0.476,-0.272C0.475,-0.264 0.474,-0.257 0.472,-0.251L0.174,-0.251C0.175,-0.179 0.188,-0.127 0.213,-0.096C0.238,-0.064 0.275,-0.048 0.324,-0.048C0.357,-0.048 0.384,-0.053 0.405,-0.064C0.426,-0.075 0.445,-0.09 0.463,-0.111L0.473,-0.102C0.452,-0.065 0.425,-0.037 0.391,-0.016C0.356,0.005 0.315,0.015 0.267,0.015C0.22,0.015 0.178,0.005 0.141,-0.016C0.104,-0.036 0.076,-0.065 0.055,-0.103C0.034,-0.141 0.024,-0.186 0.024,-0.239C0.024,-0.294 0.036,-0.34 0.06,-0.379C0.084,-0.417 0.115,-0.446 0.153,-0.466C0.19,-0.486 0.23,-0.496 0.271,-0.496ZM0.268,-0.476C0.249,-0.476 0.232,-0.47 0.219,-0.459C0.205,-0.447 0.194,-0.426 0.187,-0.397C0.179,-0.367 0.175,-0.325 0.174,-0.271L0.345,-0.271C0.352,-0.344 0.349,-0.396 0.337,-0.428C0.325,-0.46 0.302,-0.476 0.268,-0.476Z" style="fill-rule:nonzero;"/>
                </g>
                <g transform="matrix(3589,0,0,3589,13703.3,3310.83)">
                    <path d="M0.022,-0L0.022,-0.01L0.043,-0.018C0.064,-0.027 0.075,-0.044 0.075,-0.069L0.075,-0.591C0.075,-0.618 0.064,-0.635 0.043,-0.642L0.022,-0.65L0.022,-0.66L0.286,-0.66C0.357,-0.66 0.418,-0.647 0.469,-0.621C0.52,-0.594 0.559,-0.557 0.587,-0.508C0.614,-0.459 0.628,-0.4 0.628,-0.331C0.628,-0.261 0.613,-0.201 0.583,-0.152C0.553,-0.103 0.511,-0.065 0.458,-0.039C0.404,-0.013 0.341,-0 0.268,-0L0.022,-0ZM0.225,-0.02L0.268,-0.02C0.316,-0.02 0.355,-0.029 0.384,-0.049C0.413,-0.068 0.435,-0.099 0.449,-0.145C0.462,-0.19 0.469,-0.251 0.469,-0.33C0.469,-0.409 0.462,-0.47 0.449,-0.516C0.435,-0.56 0.414,-0.592 0.385,-0.612C0.356,-0.631 0.319,-0.64 0.272,-0.64L0.225,-0.64L0.225,-0.02Z" style="fill-rule:nonzero;"/>
                </g>
                <g transform="matrix(3589,0,0,3589,16029,3310.83)">
                    <path d="M0.14,-0.548C0.117,-0.548 0.098,-0.555 0.083,-0.57C0.067,-0.584 0.059,-0.602 0.059,-0.624C0.059,-0.647 0.067,-0.665 0.083,-0.679C0.098,-0.693 0.117,-0.7 0.14,-0.7C0.163,-0.7 0.182,-0.693 0.197,-0.679C0.212,-0.665 0.22,-0.647 0.22,-0.624C0.22,-0.602 0.212,-0.584 0.197,-0.57C0.182,-0.555 0.163,-0.548 0.14,-0.548ZM0.022,-0L0.022,-0.01L0.036,-0.014C0.049,-0.018 0.058,-0.024 0.064,-0.032C0.069,-0.04 0.071,-0.051 0.071,-0.064L0.071,-0.377C0.071,-0.391 0.069,-0.402 0.064,-0.409C0.058,-0.416 0.049,-0.42 0.036,-0.423L0.022,-0.426L0.022,-0.436L0.205,-0.495L0.215,-0.485L0.212,-0.343L0.212,-0.063C0.212,-0.05 0.215,-0.039 0.22,-0.031C0.225,-0.023 0.233,-0.017 0.246,-0.013L0.256,-0.01L0.256,-0L0.022,-0Z" style="fill-rule:nonzero;"/>
                </g>
                <g transform="matrix(3589,0,0,3589,17033.9,3310.83)">
                    <path d="M0.271,-0.496C0.314,-0.496 0.351,-0.487 0.382,-0.47C0.413,-0.452 0.436,-0.428 0.453,-0.398C0.469,-0.367 0.477,-0.333 0.477,-0.294C0.477,-0.287 0.477,-0.279 0.476,-0.272C0.475,-0.264 0.474,-0.257 0.472,-0.251L0.174,-0.251C0.175,-0.179 0.188,-0.127 0.213,-0.096C0.238,-0.064 0.275,-0.048 0.324,-0.048C0.357,-0.048 0.384,-0.053 0.405,-0.064C0.426,-0.075 0.445,-0.09 0.463,-0.111L0.473,-0.102C0.452,-0.065 0.425,-0.037 0.391,-0.016C0.356,0.005 0.315,0.015 0.267,0.015C0.22,0.015 0.178,0.005 0.141,-0.016C0.104,-0.036 0.076,-0.065 0.055,-0.103C0.034,-0.141 0.024,-0.186 0.024,-0.239C0.024,-0.294 0.036,-0.34 0.06,-0.379C0.084,-0.417 0.115,-0.446 0.153,-0.466C0.19,-0.486 0.23,-0.496 0.271,-0.496ZM0.268,-0.476C0.249,-0.476 0.232,-0.47 0.219,-0.459C0.205,-0.447 0.194,-0.426 0.187,-0.397C0.179,-0.367 0.175,-0.325 0.174,-0.271L0.345,-0.271C0.352,-0.344 0.349,-0.396 0.337,-0.428C0.325,-0.46 0.302,-0.476 0.268,-0.476Z" style="fill-rule:nonzero;"/>
                </g>
                <g transform="matrix(3589,0,0,3589,18853.5,3310.83)">
                    <path d="M0.21,0.015C0.167,0.015 0.134,0.004 0.111,-0.017C0.087,-0.038 0.075,-0.072 0.075,-0.119L0.075,-0.461L0.006,-0.461L0.006,-0.471L0.03,-0.475C0.051,-0.48 0.069,-0.486 0.084,-0.495C0.098,-0.504 0.113,-0.515 0.128,-0.53L0.21,-0.621L0.22,-0.621L0.217,-0.481L0.329,-0.481L0.329,-0.461L0.216,-0.461L0.216,-0.101C0.216,-0.078 0.221,-0.06 0.232,-0.048C0.242,-0.036 0.255,-0.03 0.271,-0.03C0.285,-0.03 0.297,-0.034 0.308,-0.041C0.319,-0.048 0.329,-0.057 0.34,-0.069L0.35,-0.059C0.337,-0.036 0.318,-0.018 0.295,-0.005C0.272,0.008 0.243,0.015 0.21,0.015Z" style="fill-rule:nonzero;"/>
                </g>
                <g transform="matrix(3589,0,0,3589,20149.2,3310.83)">
                    <path d="M0.166,0.015C0.127,0.015 0.095,0.004 0.069,-0.018C0.042,-0.04 0.029,-0.072 0.029,-0.113C0.029,-0.144 0.045,-0.173 0.077,-0.2C0.109,-0.226 0.159,-0.246 0.228,-0.259C0.239,-0.261 0.251,-0.263 0.264,-0.266C0.277,-0.268 0.291,-0.27 0.306,-0.273L0.306,-0.352C0.306,-0.397 0.301,-0.429 0.29,-0.448C0.279,-0.466 0.261,-0.475 0.238,-0.475C0.222,-0.475 0.209,-0.47 0.2,-0.46C0.191,-0.449 0.185,-0.431 0.182,-0.406L0.18,-0.395C0.179,-0.366 0.172,-0.345 0.159,-0.332C0.146,-0.319 0.131,-0.312 0.112,-0.312C0.095,-0.312 0.08,-0.317 0.069,-0.328C0.058,-0.339 0.052,-0.353 0.052,-0.371C0.052,-0.398 0.062,-0.421 0.081,-0.44C0.099,-0.459 0.125,-0.473 0.156,-0.482C0.187,-0.491 0.221,-0.496 0.258,-0.496C0.317,-0.496 0.363,-0.482 0.396,-0.453C0.428,-0.424 0.444,-0.376 0.444,-0.311L0.444,-0.09C0.444,-0.06 0.458,-0.045 0.486,-0.045L0.508,-0.045L0.517,-0.037C0.504,-0.021 0.491,-0.009 0.476,-0C0.46,0.009 0.439,0.013 0.412,0.013C0.383,0.013 0.36,0.006 0.343,-0.008C0.326,-0.021 0.314,-0.039 0.309,-0.062C0.289,-0.041 0.269,-0.023 0.248,-0.008C0.227,0.008 0.199,0.015 0.166,0.015ZM0.227,-0.046C0.24,-0.046 0.253,-0.049 0.265,-0.056C0.276,-0.062 0.29,-0.072 0.306,-0.085L0.306,-0.253C0.299,-0.252 0.293,-0.25 0.286,-0.249C0.279,-0.248 0.272,-0.246 0.263,-0.245C0.232,-0.237 0.208,-0.224 0.19,-0.205C0.171,-0.186 0.162,-0.16 0.162,-0.128C0.162,-0.101 0.168,-0.08 0.181,-0.067C0.194,-0.053 0.209,-0.046 0.227,-0.046Z" style="fill-rule:nonzero;"/>
                </g>
            </g>
        </g>
    </g>
    <defs>
        <radialGradient id="_Radial1" cx="0" cy="0" r="1" gradientUnits="userSpaceOnUse" gradientTransform="matrix(1.09079e-13,1781.39,-1781.39,1.09079e-13,2236.63,1175.17)"><stop offset="0" style="stop-color:rgb(255,210,163);stop-opacity:1"/><stop offset="1" style="stop-color:rgb(248,119,136);stop-opacity:1"/></radialGradient>
        <linearGradient id="_Linear2" x1="0" y1="0" x2="1" y2="-0.000180551" gradientUnits="userSpaceOnUse" gradientTransform="matrix(-1001.41,316.66,-316.66,-1001.41,2849.62,544.168)"><stop offset="0" style="stop-color:rgb(58,61,18);stop-opacity:1"/><stop offset="1" style="stop-color:rgb(122,126,56);stop-opacity:1"/></linearGradient>
        <radialGradient id="_Radial3" cx="0" cy="0" r="1" gradientUnits="userSpaceOnUse" gradientTransform="matrix(1.09079e-13,1781.39,-1781.39,1.09079e-13,2236.63,1175.17)"><stop offset="0" style="stop-color:rgb(255,210,163);stop-opacity:1"/><stop offset="1" style="stop-color:rgb(248,119,136);stop-opacity:1"/></radialGradient>
        <linearGradient id="_Linear4" x1="0" y1="0" x2="1" y2="-0.000180551" gradientUnits="userSpaceOnUse" gradientTransform="matrix(-1001.41,316.66,-316.66,-1001.41,2849.62,544.168)"><stop offset="0" style="stop-color:rgb(58,61,18);stop-opacity:1"/><stop offset="1" style="stop-color:rgb(122,126,56);stop-opacity:1"/></linearGradient>
    </defs>
</svg>
